<svg xmlns="http://www.w3.org/2000/svg" width="16.997" height="18.965" viewBox="0 0 16.997 18.965">
  <g id="especialista" transform="translate(-728.314 -325.245)">
    <path id="Caminho_51" data-name="Caminho 51" d="M15.074,4.319,10.028,7.274H9.916l-5.607-2.6c-.112,0-.112-.118,0-.236L9.355,1.6h.112l5.607,2.6C15.186,4.2,15.186,4.319,15.074,4.319Z" transform="translate(727.297 324.145)" fill="none" stroke="#218cd3" stroke-linecap="round" stroke-miterlimit="10" stroke-width="1"/>
    <path id="Caminho_52" data-name="Caminho 52" d="M13.277,9.5l-.942.471c-.118,0-.235,0-.235-.118V8.789a.118.118,0,0,1,.118-.118L13.16,8.2c.118,0,.236,0,.236.118v1.06C13.4,9.5,13.4,9.5,13.277,9.5Z" transform="translate(728.265 325.053)" fill="#218cd3"/>
    <path id="Caminho_53" data-name="Caminho 53" d="M11.077,10.8l-.942.471c-.118,0-.235,0-.235-.118v-1.06a.118.118,0,0,1,.118-.118L10.96,9.5c.118,0,.235,0,.235.118v1.06C11.2,10.8,11.2,10.8,11.077,10.8Z" transform="translate(727.967 325.227)" fill="#218cd3"/>
    <path id="Caminho_54" data-name="Caminho 54" d="M13.277,8.1l-.942.471c-.118,0-.235,0-.235-.118V7.389a.118.118,0,0,1,.118-.118L13.16,6.8c.118,0,.236,0,.236.118v1.06A.118.118,0,0,1,13.277,8.1Z" transform="translate(728.265 324.865)" fill="#218cd3"/>
    <path id="Caminho_55" data-name="Caminho 55" d="M11.077,9.413l-.942.471c-.118,0-.235,0-.235-.118V8.706a.118.118,0,0,1,.118-.118L10.96,8c.118,0,.235,0,.235.118v1.06C11.2,9.3,11.2,9.413,11.077,9.413Z" transform="translate(727.967 325.024)" fill="#218cd3"/>
    <path id="Caminho_56" data-name="Caminho 56" d="M13.277,6.713l-.942.471c-.118,0-.235,0-.235-.118V6.006a.118.118,0,0,1,.118-.118L13.16,5.3c.118,0,.236,0,.236.118v1.06C13.4,6.6,13.4,6.6,13.277,6.713Z" transform="translate(728.265 324.663)" fill="#218cd3"/>
    <path id="Caminho_57" data-name="Caminho 57" d="M11.077,7.9l-.942.471c-.118,0-.235,0-.235-.118V7.189a.118.118,0,0,1,.118-.118L10.96,6.6c.118,0,.235,0,.235.118v1.06C11.2,7.9,11.2,7.9,11.077,7.9Z" transform="translate(727.967 324.838)" fill="#218cd3"/>
    <path id="Caminho_58" data-name="Caminho 58" d="M13.277,10.9l-.942.471c-.118,0-.235,0-.235-.118v-1.06a.118.118,0,0,1,.118-.118L13.16,9.6c.118,0,.236,0,.236.118v1.06a.118.118,0,0,1-.118.118Z" transform="translate(728.265 325.241)" fill="#218cd3"/>
    <path id="Caminho_59" data-name="Caminho 59" d="M11.077,12.2l-.942.471c-.118,0-.235,0-.235-.118v-1.06a.118.118,0,0,1,.118-.118l.942-.471c.118,0,.235,0,.235.118v1.06C11.2,12.2,11.2,12.2,11.077,12.2Z" transform="translate(727.967 325.415)" fill="#218cd3"/>
    <path id="Caminho_60" data-name="Caminho 60" d="M13.26,12.377l-.824.471c-.118.118-.235,0-.235-.118v-.942a.118.118,0,0,1,.118-.118l.824-.471c.118,0,.235,0,.235.118v.942C13.26,12.26,13.26,12.26,13.26,12.377Z" transform="translate(728.282 325.457)" fill="#218cd3"/>
    <path id="Caminho_61" data-name="Caminho 61" d="M11.077,13.7l-.942.471c-.118,0-.235,0-.235-.118v-1.06a.118.118,0,0,1,.118-.118l.942-.471c.118,0,.235,0,.235.118v1.06Z" transform="translate(727.967 325.616)" fill="#218cd3"/>
    <path id="Caminho_62" data-name="Caminho 62" d="M5.218,9.7l.942.471c.118,0,.235,0,.235-.235V8.871c0-.118,0-.118-.118-.118L5.335,8.4c-.118,0-.235,0-.235.235V9.7C5.1,9.577,5.218,9.7,5.218,9.7Z" transform="translate(727.318 325.08)" fill="#218cd3"/>
    <path id="Caminho_63" data-name="Caminho 63" d="M7.818,10.8l.942.471c.118,0,.235,0,.235-.118v-.942c0-.118,0-.118-.118-.235L7.935,9.5c-.118,0-.235,0-.235.235V10.8C7.7,10.677,7.7,10.8,7.818,10.8Z" transform="translate(727.67 325.227)" fill="#218cd3"/>
    <path id="Caminho_64" data-name="Caminho 64" d="M5.218,8.3l.942.471c.118,0,.235,0,.235-.235V7.471c0-.118,0-.118-.118-.118L5.335,7C5.218,7,5.1,7,5.1,7.235V8.3C5.1,8.177,5.218,8.3,5.218,8.3Z" transform="translate(727.318 324.892)" fill="#218cd3"/>
    <path id="Caminho_65" data-name="Caminho 65" d="M7.818,9.4l.942.471c.118,0,.235,0,.235-.118V8.806c0-.118,0-.118-.118-.235L7.935,8.1c-.118,0-.235,0-.235.235V9.4C7.7,9.277,7.7,9.4,7.818,9.4Z" transform="translate(727.67 325.04)" fill="#218cd3"/>
    <path id="Caminho_66" data-name="Caminho 66" d="M5.218,6.913l.942.353c.118,0,.235,0,.235-.235V5.971c0-.118,0-.118-.118-.118L5.335,5.5c-.118,0-.235,0-.235.235V6.8Z" transform="translate(727.318 324.691)" fill="#218cd3"/>
    <path id="Caminho_67" data-name="Caminho 67" d="M7.818,8l.942.471c.118,0,.235,0,.235-.118V7.406c0-.118,0-.118-.118-.235L7.935,6.7c-.118,0-.235,0-.235.235V8C7.7,7.877,7.7,8,7.818,8Z" transform="translate(727.67 324.852)" fill="#218cd3"/>
    <path id="Caminho_68" data-name="Caminho 68" d="M5.318,11.1l.942.353c.118,0,.235,0,.235-.235v-.942c0-.118,0-.118-.118-.118L5.435,9.8c-.118,0-.235,0-.235.235v.942a.118.118,0,0,0,.118.118Z" transform="translate(727.332 325.27)" fill="#218cd3"/>
    <path id="Caminho_69" data-name="Caminho 69" d="M7.818,12.2l.942.353c.118,0,.235,0,.235-.118v-.942c0-.118,0-.118-.118-.235L7.935,10.9c-.118,0-.235,0-.235.235v.942a.118.118,0,0,0,.118.118Z" transform="translate(727.67 325.418)" fill="#218cd3"/>
    <path id="Caminho_70" data-name="Caminho 70" d="M5.318,12.5l.942.353c.118,0,.235,0,.235-.235v-.942c0-.118,0-.118-.118-.118L5.435,11.2c-.118,0-.235,0-.235.235v.942Z" transform="translate(727.332 325.459)" fill="#218cd3"/>
    <path id="Caminho_71" data-name="Caminho 71" d="M7.818,13.6l.942.353c.118,0,.235,0,.235-.118v-.942c0-.118,0-.118-.118-.235L7.935,12.3c-.118,0-.235,0-.235.118v.942C7.7,13.477,7.7,13.6,7.818,13.6Z" transform="translate(727.67 325.607)" fill="#218cd3"/>
    <path id="Caminho_72" data-name="Caminho 72" d="M15.559,11.918l2.277,1.06c.114,0,.114.235,0,.235l-7.059,4a.943.943,0,0,1-.8,0l-7.97-3.65c-.114,0-.114-.235,0-.235L4.743,11.8" transform="translate(726.889 326.398)" fill="none" stroke="#218cd3" stroke-linecap="round" stroke-miterlimit="10" stroke-width="1"/>
    <path id="Caminho_73" data-name="Caminho 73" d="M15.057,4.1l-.112,10.192v.246l-4.93,2.947H9.9L4.524,15.028c-.112,0-.112-.123-.112-.246L4.3,4.223" transform="translate(727.31 324.482)" fill="none" stroke="#218cd3" stroke-linecap="round" stroke-miterlimit="10" stroke-width="1"/>
  </g>
</svg>
